<svg xmlns="http://www.w3.org/2000/svg" width="48" height="46" viewBox="0 0 48 46" fill="none">
  <defs>
    <linearGradient id="itGold" x1="6" y1="4" x2="42" y2="42" gradientUnits="userSpaceOnUse">
      <stop offset="0" stop-color="#FFE082"/>
      <stop offset=".45" stop-color="#FBBF24"/>
      <stop offset="1" stop-color="#D97706"/>
    </linearGradient>
  </defs>
  <!-- location pin outline -->
  <path d="M24 2.6C14.6 2.6 7 9.8 7 18.8c0 11.2 17 24.6 17 24.6s17-13.4 17-24.6C41 9.8 33.4 2.6 24 2.6Z"
        stroke="url(#itGold)" stroke-width="2.8" stroke-linejoin="round"/>
  <!-- orbit ring -->
  <ellipse cx="24" cy="21.5" rx="19.5" ry="6.5" transform="rotate(-18 24 21.5)"
           stroke="url(#itGold)" stroke-width="2.2"/>
  <!-- inner compass ring (dashed) -->
  <circle cx="24" cy="21.5" r="10.2" stroke="url(#itGold)" stroke-width="1.6" stroke-dasharray="3 4"/>
  <!-- compass star — secondary diagonal points -->
  <path d="M24 14.6l1.7 4.4 4.4 1.7-4.4 1.7L24 26.8l-1.7-4.4-4.4-1.7 4.4-1.7L24 14.6Z
           M31.4 21.5l-2 1.4M16.6 21.5l2 1.4M24 28.9l-1.4-2M24 14.1l1.4 2"
        fill="#FFF3C4" opacity=".85"/>
  <!-- compass star — main cardinal points -->
  <path d="M24 9.4l2.5 9.6L36 21.5l-9.5 2.5L24 33.6l-2.5-9.6L12 21.5l9.5-2.5L24 9.4Z"
        fill="url(#itGold)"/>
  <circle cx="24" cy="21.5" r="1.6" fill="#FFF8E1"/>
  <!-- sparkle top-right -->
  <path d="M40.5 4.2l1.1 3.4 3.4 1.1-3.4 1.1-1.1 3.4-1.1-3.4-3.4-1.1 3.4-1.1 1.1-3.4Z" fill="url(#itGold)"/>
</svg>
